<svg width="46" height="46" viewBox="0 0 46 46" fill="none" xmlns="http://www.w3.org/2000/svg">
<rect width="46" height="46" rx="23" fill="#F2F2F2"/>
<circle cx="23" cy="23" r="16" fill="#333333"/>
<path d="M23.0949 18.0206C24.1468 18.0204 25 17.1631 25 16.1057V15.9149C25 14.8575 24.1468 14.0003 23.0949 14H22.9051C21.8529 14 21 14.8574 21 15.9149V16.1057C21 17.1633 21.8529 18.0206 22.9051 18.0206H23.0949Z" fill="white"/>
<path d="M23 32C24.052 31.9997 24.9051 31.1425 24.9051 30.0851V22.7655C24.9051 21.708 24.052 20.8508 23 20.8505C21.948 20.8507 21.0949 21.708 21.0949 22.7655V30.0851C21.0949 31.1425 21.948 31.9998 23 32Z" fill="white"/>
</svg>
