<svg width="18" height="14" viewBox="0 0 18 14" fill="none" xmlns="http://www.w3.org/2000/svg">
<path d="M7.37254 13.4866L17.5442 2.95322C17.844 2.62049 18.0073 2.1802 17.9997 1.72518C17.9922 1.27016 17.8142 0.835966 17.5035 0.514161C17.1927 0.192372 16.7735 0.00812244 16.3341 0.000262182C15.8947 -0.00759808 15.4695 0.161545 15.1482 0.472027L6.17454 9.76479L2.85181 6.32389C2.53051 6.01341 2.10533 5.84427 1.66593 5.85213C1.22654 5.85999 0.807259 6.04424 0.496505 6.36603C0.185766 6.68783 0.00784352 7.12202 0.000253178 7.57704C-0.00733716 8.03207 0.155998 8.47236 0.455818 8.80509L4.97655 13.4866C5.29441 13.8153 5.72529 14 6.17454 14C6.62379 14 7.05467 13.8153 7.37254 13.4866Z" fill="#01AB80"/>
</svg>
